<svg width="16" height="16" viewBox="0 0 16 16" fill="none" xmlns="http://www.w3.org/2000/svg">
<path d="M5.4552 13.8072C5.5144 14.0248 5.60374 14.2222 5.7232 14.3992H5.5984C4.7152 14.3992 3.9984 13.6832 3.9976 12.7992L3.9936 8.37123L5.4552 13.8072ZM3.2 13.1992C3.2 13.3208 3.21067 13.4398 3.232 13.556L3.1872 13.544C2.98407 13.4898 2.79362 13.3961 2.62674 13.2682C2.45985 13.1403 2.31981 12.9808 2.2146 12.7988C2.1094 12.6168 2.0411 12.4158 2.01361 12.2074C1.98612 11.9989 1.99999 11.7871 2.0544 11.584L3.1952 7.31203L3.2 13.1992ZM6.124 13.2136C6.1784 13.4167 6.27227 13.6071 6.40027 13.7738C6.52827 13.9406 6.68788 14.0805 6.86998 14.1856C7.05208 14.2906 7.2531 14.3588 7.46154 14.3861C7.66999 14.4134 7.88178 14.3994 8.0848 14.3448L12.4176 13.184C12.8274 13.074 13.1767 12.8057 13.3887 12.4381C13.6007 12.0706 13.658 11.6338 13.548 11.224L11.2792 2.78563C11.2247 2.58263 11.1308 2.39235 11.0027 2.22567C10.8747 2.05899 10.7151 1.91917 10.533 1.81419C10.3509 1.70922 10.1499 1.64115 9.94152 1.61387C9.73311 1.5866 9.52137 1.60065 9.3184 1.65523L4.9856 2.81523C4.57598 2.92527 4.22682 3.19346 4.01485 3.56084C3.80288 3.92822 3.74546 4.36473 3.8552 4.77443L6.124 13.2136ZM7.2 5.00003C7.2 5.15916 7.13679 5.31177 7.02427 5.42429C6.91175 5.53681 6.75913 5.60003 6.6 5.60003C6.44087 5.60003 6.28826 5.53681 6.17574 5.42429C6.06322 5.31177 6 5.15916 6 5.00003C6 4.8409 6.06322 4.68829 6.17574 4.57576C6.28826 4.46324 6.44087 4.40003 6.6 4.40003C6.75913 4.40003 6.91175 4.46324 7.02427 4.57576C7.13679 4.68829 7.2 4.8409 7.2 5.00003Z" fill="white"/>
</svg>
