<svg width="16" height="16" viewBox="0 0 16 16" fill="none" xmlns="http://www.w3.org/2000/svg">
<path d="M7 3H9C9 2.73478 8.89464 2.48043 8.70711 2.29289C8.51957 2.10536 8.26522 2 8 2C7.73478 2 7.48043 2.10536 7.29289 2.29289C7.10536 2.48043 7 2.73478 7 3ZM6 3C6 2.46957 6.21071 1.96086 6.58579 1.58579C6.96086 1.21071 7.46957 1 8 1C8.53043 1 9.03914 1.21071 9.41421 1.58579C9.78929 1.96086 10 2.46957 10 3H14C14.1326 3 14.2598 3.05268 14.3536 3.14645C14.4473 3.24021 14.5 3.36739 14.5 3.5C14.5 3.63261 14.4473 3.75979 14.3536 3.85355C14.2598 3.94732 14.1326 4 14 4H13.436L12.231 12.838C12.1493 13.4369 11.8533 13.986 11.3979 14.3835C10.9425 14.781 10.3585 15 9.754 15H6.246C5.64152 15 5.05751 14.781 4.6021 14.3835C4.14669 13.986 3.85073 13.4369 3.769 12.838L2.564 4H2C1.86739 4 1.74021 3.94732 1.64645 3.85355C1.55268 3.75979 1.5 3.63261 1.5 3.5C1.5 3.36739 1.55268 3.24021 1.64645 3.14645C1.74021 3.05268 1.86739 3 2 3H6ZM7 6.5C7 6.36739 6.94732 6.24021 6.85355 6.14645C6.75979 6.05268 6.63261 6 6.5 6C6.36739 6 6.24021 6.05268 6.14645 6.14645C6.05268 6.24021 6 6.36739 6 6.5V11.5C6 11.6326 6.05268 11.7598 6.14645 11.8536C6.24021 11.9473 6.36739 12 6.5 12C6.63261 12 6.75979 11.9473 6.85355 11.8536C6.94732 11.7598 7 11.6326 7 11.5V6.5ZM9.5 6C9.36739 6 9.24021 6.05268 9.14645 6.14645C9.05268 6.24021 9 6.36739 9 6.5V11.5C9 11.6326 9.05268 11.7598 9.14645 11.8536C9.24021 11.9473 9.36739 12 9.5 12C9.63261 12 9.75979 11.9473 9.85355 11.8536C9.94732 11.7598 10 11.6326 10 11.5V6.5C10 6.36739 9.94732 6.24021 9.85355 6.14645C9.75979 6.05268 9.63261 6 9.5 6Z" fill="#546B82"/>
</svg>
