<svg width="10" height="10" viewBox="0 0 10 10" fill="none" xmlns="http://www.w3.org/2000/svg">
<path fill-rule="evenodd" clip-rule="evenodd" d="M5.83338 0.833322C5.83342 0.741725 5.80328 0.652665 5.74763 0.579919C5.69197 0.507173 5.61389 0.454795 5.52546 0.430887C5.43704 0.406979 5.34321 0.412873 5.25847 0.447659C5.17374 0.482444 5.10283 0.544182 5.05671 0.623322L2.14004 5.62332C2.10309 5.68664 2.0835 5.75859 2.08325 5.83191C2.08301 5.90522 2.1021 5.9773 2.13862 6.04087C2.17514 6.10444 2.22779 6.15725 2.29125 6.19397C2.35471 6.23069 2.42673 6.25001 2.50004 6.24999H4.16671V9.16666C4.16666 9.25825 4.1968 9.34731 4.25246 9.42006C4.30812 9.4928 4.3862 9.54518 4.47462 9.56909C4.56304 9.593 4.65688 9.5871 4.74161 9.55232C4.82635 9.51753 4.89726 9.4558 4.94338 9.37666L7.86004 4.37665C7.89699 4.31333 7.91658 4.24138 7.91683 4.16807C7.91708 4.09476 7.89798 4.02267 7.86146 3.9591C7.82494 3.89553 7.77229 3.84272 7.70884 3.80601C7.64538 3.76929 7.57336 3.74997 7.50004 3.74999H5.83338V0.833322Z" fill="white"/>
</svg>
