<svg width="10" height="10" viewBox="0 0 10 10" fill="none" xmlns="http://www.w3.org/2000/svg">
<g clip-path="url(#clip0_78_1189)">
<path d="M5.00002 2.70831C5.00002 2.60831 5.00002 2.55873 5.03335 2.5279C5.06752 2.49706 5.11418 2.50081 5.20835 2.50873C5.62809 2.54379 6.03216 2.68433 6.38306 2.9173C6.73396 3.15027 7.02031 3.46812 7.21553 3.84135C7.41075 4.21458 7.50851 4.63108 7.49972 5.05218C7.49094 5.47329 7.37591 5.88535 7.1653 6.25011C6.95469 6.61488 6.65534 6.92051 6.29503 7.13865C5.93472 7.35679 5.52513 7.48036 5.1043 7.49789C4.68347 7.51542 4.26503 7.42634 3.88783 7.23891C3.51063 7.05149 3.18689 6.7718 2.94668 6.42581C2.89252 6.34831 2.86585 6.30956 2.87585 6.26498C2.88585 6.2204 2.92918 6.19581 3.01543 6.14581L4.89585 5.05998C4.94668 5.03081 4.9721 5.01623 4.98585 4.99206C5.00002 4.9679 5.00002 4.93831 5.00002 4.87956V2.70831Z" fill="white"/>
<path d="M5 8.75C7.07107 8.75 8.75 7.07107 8.75 5C8.75 2.92893 7.07107 1.25 5 1.25C2.92893 1.25 1.25 2.92893 1.25 5C1.25 7.07107 2.92893 8.75 5 8.75Z" stroke="white" stroke-width="0.833333"/>
</g>
<defs>
<clipPath id="clip0_78_1189">
<rect width="10" height="10" fill="white"/>
</clipPath>
</defs>
</svg>
