<svg width="24" height="24" viewBox="0 0 24 24" fill="none" xmlns="http://www.w3.org/2000/svg">
<path d="M21.2209 8.66667H18.329L17.7127 4.78333C17.5885 4.19578 17.3158 3.65466 16.9234 3.21743C16.5311 2.78019 16.0339 2.46316 15.4845 2.3C14.9323 2.11363 14.3574 2.01258 13.7778 2H10.238C9.65835 2.01258 9.08348 2.11363 8.5313 2.3C7.9819 2.46316 7.48465 2.78019 7.09234 3.21743C6.70003 3.65466 6.4273 4.19578 6.30312 4.78333L5.68682 8.66667H2.79493C2.67046 8.66587 2.54758 8.6961 2.4363 8.75488C2.32501 8.81367 2.22846 8.89935 2.15452 9.00495C2.08059 9.11055 2.03135 9.23307 2.01082 9.36255C1.99029 9.49202 1.99906 9.62478 2.0364 9.75L5.0073 20.25C5.15855 20.7572 5.45921 21.2004 5.8656 21.5151C6.27198 21.8298 6.76292 21.9997 7.26709 22H16.7487C17.2502 21.9961 17.7375 21.8247 18.1408 21.5102C18.544 21.1958 18.8422 20.7545 18.9927 20.25L21.9636 9.75C22.0005 9.62612 22.0095 9.49484 21.9898 9.36664C21.9701 9.23844 21.9223 9.11687 21.8502 9.01163C21.778 8.90639 21.6835 8.82039 21.5743 8.7605C21.465 8.70061 21.344 8.66847 21.2209 8.66667ZM7.29869 8.66667L7.86759 5.05C7.92995 4.75471 8.07463 4.48583 8.28301 4.27793C8.4914 4.07003 8.75397 3.93261 9.03699 3.88333C9.42573 3.75333 9.83028 3.68167 10.238 3.66667H13.7778C14.1918 3.68111 14.5974 3.75333 14.9946 3.88333C15.2776 3.93261 15.5402 4.07003 15.7486 4.27793C15.957 4.48583 16.1016 4.75471 16.164 5.05L16.7171 8.66667H7.23548H7.29869Z" fill="#248BDA"/>
</svg>
