<svg width="24" height="24" viewBox="0 0 24 24" fill="none" xmlns="http://www.w3.org/2000/svg">
<path d="M6.44444 17.5556H8.66667V12H6.44444V17.5556ZM15.3333 17.5556H17.5556V6.44444H15.3333V17.5556ZM10.8889 17.5556H13.1111V14.2222H10.8889V17.5556ZM10.8889 12H13.1111V9.77778H10.8889V12ZM4.22222 22C3.61111 22 3.08815 21.7826 2.65333 21.3478C2.21852 20.913 2.00074 20.3896 2 19.7778V4.22222C2 3.61111 2.21778 3.08815 2.65333 2.65333C3.08889 2.21852 3.61185 2.00074 4.22222 2H19.7778C20.3889 2 20.9122 2.21778 21.3478 2.65333C21.7833 3.08889 22.0007 3.61185 22 4.22222V19.7778C22 20.3889 21.7826 20.9122 21.3478 21.3478C20.913 21.7833 20.3896 22.0007 19.7778 22H4.22222Z" fill="#47515C"/>
</svg>
