<svg width="13" height="12" viewBox="0 0 13 12" fill="none" xmlns="http://www.w3.org/2000/svg">
<path d="M11.915 2.31099L6.62167 10.7402C6.5571 10.8426 6.46755 10.9269 6.36145 10.9852C6.25534 11.0435 6.13616 11.0738 6.0151 11.0734C5.89403 11.073 5.77506 11.0418 5.66936 10.9828C5.56366 10.9238 5.4747 10.8388 5.41083 10.736L0.221667 2.30765C0.0765355 2.07125 -0.000196165 1.79922 3.76621e-07 1.52182C0.0065815 1.11219 0.175416 0.721902 0.469449 0.436618C0.763481 0.151334 1.15869 -0.00563721 1.56833 0.000154777H10.5825C11.4433 0.000154777 12.1433 0.679321 12.1433 1.51849C12.1428 1.7988 12.0637 2.07335 11.915 2.31099ZM1.49667 2.02932L5.3575 7.98265V1.42932H1.9C1.5 1.42932 1.32167 1.69349 1.49667 2.02932ZM6.78583 7.98265L10.6467 2.02932C10.825 1.69349 10.6433 1.42932 10.2433 1.42932H6.78583V7.98265Z" fill="white"/>
</svg>
