<svg width="16" height="16" viewBox="0 0 16 16" fill="none" xmlns="http://www.w3.org/2000/svg">
<path d="M12.2427 5.36675L11.7713 4.89542C10.8787 4.00254 9.69817 3.45532 8.4399 3.35111C7.18163 3.24689 5.92719 3.59246 4.89978 4.32631C3.87238 5.06016 3.13863 6.1347 2.82911 7.35875C2.51958 8.5828 2.65435 9.87697 3.20943 11.011C3.7645 12.145 4.70389 13.0453 5.86046 13.5517C7.01702 14.0582 8.31574 14.1379 9.52554 13.7766C10.7353 13.4154 11.7778 12.6367 12.4673 11.5791C13.1569 10.5214 13.4489 9.25346 13.2913 8.00075M12.2427 5.36675L9.41401 5.36742M12.2427 5.36675V2.53809" stroke="white" stroke-width="1.4" stroke-linecap="round" stroke-linejoin="round"/>
</svg>
