<svg width="12" height="16" viewBox="0 0 12 16" fill="none" xmlns="http://www.w3.org/2000/svg">
<g clip-path="url(#clip0_568_633)">
<path d="M6.5 3C9.2615 3 11.5 5.2385 11.5 8C11.5 10.7615 9.2615 13 6.5 13C3.7385 13 1.5 10.7615 1.5 8C1.5 5.2385 3.7385 3 6.5 3ZM6.5 5C6.36739 5 6.24021 5.05268 6.14645 5.14645C6.05268 5.24021 6 5.36739 6 5.5V8C6.00003 8.1326 6.05273 8.25975 6.1465 8.3535L7.6465 9.8535C7.7408 9.94458 7.8671 9.99498 7.9982 9.99384C8.1293 9.9927 8.25471 9.94011 8.34741 9.84741C8.44011 9.75471 8.4927 9.6293 8.49384 9.4982C8.49498 9.3671 8.44458 9.2408 8.3535 9.1465L7 7.793V5.5C7 5.36739 6.94732 5.24021 6.85355 5.14645C6.75979 5.05268 6.63261 5 6.5 5Z" fill="#248BDA"/>
</g>
<defs>
<clipPath id="clip0_568_633">
<rect width="11" height="16" fill="white" transform="translate(0.5)"/>
</clipPath>
</defs>
</svg>
